# xmcd CD database file
#
# Track frame offsets:
#	150
#	4832
#	28565
#	47912
#	71405
#	98342
#	117127
#	133637
#	160470
#	188465
#	206725
#	221607
#	253692
#
# Disc length: 3555 seconds
#
# Revision: 0
# Processed by: cddbd v1.5.1PL0 Copyright (c) Steve Scherf et al.
# Submitted via: CDex 1.51
#
DISCID=ad0de10d
DTITLE=DATASPEAKER - I Need Two Side Heat
DYEAR=2002
DGENRE=JPop
TTITLE0=H.B.D「MORE ROCKA」
TTITLE1=Boiler World
TTITLE2=Bicycle Race feat. 永積タカシ (from SUPER BUTTER DOG)
TTITLE3=She said. He says
TTITLE4=Moon Pride feat. 原田郁子 (from クラムボン)
TTITLE5=記憶旅
TTITLE6=Soaring feat. DJ KIRO
TTITLE7=Foot Ball Boy
TTITLE8=East and Tragedy
TTITLE9=Right Hand
TTITLE10=Fire
TTITLE11=Soupir feat. linkabel
TTITLE12=Bicycle Race (The Second)
EXTD=YEAR: 2002
EXTT0=
EXTT1=
EXTT2=
EXTT3=
EXTT4=
EXTT5=
EXTT6=
EXTT7=
EXTT8=
EXTT9=
EXTT10=
EXTT11=
EXTT12=
PLAYORDER=
